Results
version=1
nRows=19
nColumns=24
inDegrees=yes
endheader
time	pelvis_tilt	pelvis_list	pelvis_rotation	pelvis_tx	pelvis_ty	pelvis_tz	hip_flexion_r	hip_adduction_r	hip_rotation_r	knee_angle_r	ankle_angle_r	subtalar_angle_r	mtp_angle_r	hip_flexion_l	hip_adduction_l	hip_rotation_l	knee_angle_l	ankle_angle_l	subtalar_angle_l	mtp_angle_l	lumbar_extension	lumbar_bending	lumbar_rotation
      0.46300000	     -7.68152235	      1.65862975	      5.46539517	     -0.75778891	      0.88342030	      0.31635578	     37.80258168	     -1.54641036	     -4.41390257	    -18.71618838	      0.72574573	     -1.92370163	      0.77972392	     -8.40341289	      3.17578492	      3.08344456	     -6.55647435	     17.22763445	     -0.72986284	      1.45873990	     -0.24393966	     -3.97906813	    -10.26161516
      0.46716667	     -7.75383975	      1.67633312	      5.52377517	     -0.75208790	      0.88211283	      0.31660348	     37.85585603	     -1.48960628	     -4.11093247	    -18.79553303	      0.67556215	     -2.19055668	      3.39995767	     -8.35933836	      3.14002541	      3.03784870	     -7.30799576	     17.50420095	     -0.59054670	      5.74595027	     -0.14216495	     -3.96566428	    -10.10088151
      0.47133333	     -7.85798338	      1.68575647	      5.58429938	     -0.74636085	      0.88080684	      0.31688162	     37.93407537	     -1.41531745	     -3.77339708	    -18.95048929	      0.65928827	     -2.54863091	      3.37274983	     -8.26550111	      3.09879688	      3.04456682	     -8.10032944	     17.77048999	     -0.42337987	      5.80336998	      0.01716973	     -3.94788747	    -10.01132131
      0.47550000	     -7.94962092	      1.67691712	      5.63758080	     -0.74059872	      0.87956714	      0.31721219	     37.99520409	     -1.31185374	     -3.45010306	    -19.17827319	      0.59511989	     -2.93745806	      3.35414052	     -8.13684709	      3.02876782	      2.94665041	     -8.98845494	     18.05967989	     -0.12051488	      5.90266804	      0.15602029	     -3.90753908	     -9.92880456
      0.47966667	     -7.99424333	      1.64187855	      5.66660853	     -0.73477751	      0.87843461	      0.31759337	     38.00135765	     -1.16415799	     -3.14604099	    -19.47136216	      0.53132788	     -3.30451216	      3.34793335	     -8.03172742	      2.91899826	      2.73968584	     -9.93832259	     18.37993993	      0.33449754	      6.12982179	      0.23688523	     -3.81828499	     -9.83390569
      0.48383333	     -8.10438468	      1.62515308	      5.71171373	     -0.72896043	      0.87727338	      0.31795831	     38.08715115	     -1.04758244	     -2.86954208	    -19.85157347	      0.40215497	     -3.69814496	      3.35568583	     -7.84222369	      2.84455322	      2.68251164	    -10.90899467	     18.52088872	      0.51933786	      6.30711871	      0.41341926	     -3.77041018	     -9.73021181
      0.48800000	     -8.19180725	      1.59199942	      5.74209575	     -0.72310002	      0.87619557	      0.31837340	     38.14509809	     -0.90004756	     -2.60474335	    -20.28401004	      0.26300905	     -4.10192514	      3.37734309	     -7.64565865	      2.74486347	      2.56729135	    -11.94257677	     18.66500546	      0.78228087	      6.53163838	      0.56549937	     -3.69583702	     -9.60415322
      0.49216667	     -8.23638529	      1.52702534	      5.75163168	     -0.71719691	      0.87523471	      0.31885127	     38.14257457	     -0.69944328	     -2.33075027	    -20.73577185	      0.13159118	     -4.50064934	      3.43528889	     -7.45229427	      2.59719744	      2.35171687	    -13.06894780	     18.83120464	      1.17322181	      6.95712104	      0.65913536	     -3.57930287	     -9.46094110
      0.49633333	     -8.31507173	      1.49423070	      5.77002965	     -0.71128995	      0.87426978	      0.31930259	     38.21614548	     -0.54936306	     -2.13680354	    -21.32095447	      0.01226311	     -4.84198681	      3.97329594	     -7.21554950	      2.49411273	      2.22572181	    -14.19291776	     18.81304514	      1.37478932	     10.55428571	      0.80452266	     -3.50419911	     -9.39727606
      0.50050000	     -8.28723613	      1.26173470	      5.70823682	     -0.70520336	      0.87331057	      0.31986757	     38.13872685	     -0.14282313	     -1.93587497	    -21.83943530	     -0.20838761	     -5.37939798	      3.96945570	     -7.31709530	      2.18513541	      1.93317373	    -14.93065379	     18.79793480	      1.50008736	     10.60086663	      0.87614490	     -3.15035536	     -9.09111697
      0.50466667	     -8.37018496	      1.22649754	      5.70868552	     -0.69926687	      0.87248826	      0.32036169	     38.21516612	      0.02521627	     -1.73397602	    -22.49516769	     -0.26609940	     -5.69673272	      3.97746760	     -7.01986652	      2.09112022	      1.89058578	    -16.17055654	     18.69566639	      1.56210534	     10.67361725	      1.02348938	     -3.06483873	     -8.94727857
      0.50883333	     -8.42442386	      1.15742009	      5.68981960	     -0.69328680	      0.87178420	      0.32092395	     38.25109722	      0.23944288	     -1.56291800	    -23.14587912	     -0.43686082	     -6.06284682	      3.99886226	     -6.70381349	      1.93816376	      1.69825259	    -17.50375055	     18.52474170	      1.81178748	     10.87231185	      1.15243634	     -2.94449209	     -8.72900795
      0.51300000	     -8.48484126	      1.08561892	      5.67400537	     -0.68729755	      0.87113067	      0.32146534	     38.30149503	      0.45374395	     -1.39108248	    -23.84982286	     -0.40574732	     -6.38966418	      4.01923873	     -6.36406748	      1.80168604	      1.63775236	    -18.86359628	     18.29916801	      1.83219388	     11.03275082	      1.28989770	     -2.79732585	     -8.55924014
      0.51716667	     -8.53999593	      1.01186420	      5.64494187	     -0.68131308	      0.87055006	      0.32204186	     38.35170432	      0.67328399	     -1.24471863	    -24.57537147	     -0.40952606	     -6.69500469	      4.04341224	     -5.98142897	      1.65327867	      1.49795915	    -20.30895451	     17.97636906	      1.92200062	     11.25243649	      1.42456812	     -2.65749965	     -8.34811379
      0.52133333	     -8.57294357	      0.92427247	      5.60823130	     -0.67531330	      0.87007137	      0.32263175	     38.37468052	      0.90767542	     -1.11980363	    -25.31362358	     -0.34818361	     -6.96228436	      4.07097353	     -5.58556257	      1.48648829	      1.34497866	    -21.81413571	     17.58930075	      1.99430386	     11.51684844	      1.52840413	     -2.49570251	     -8.13484808
      0.52550000	     -8.55425717	      0.81035168	      5.55455203	     -0.66931757	      0.86973041	      0.32329046	     38.33111242	      1.18439336	     -0.99820009	    -26.02797625	     -0.32470573	     -7.30279273	      4.54436231	     -5.18835352	      1.26190737	      1.06606470	    -23.40683614	     17.09834912	      2.08468363	     17.79878445	      1.56512959	     -2.31128311	     -7.95126641
      0.52966667	     -8.57134674	      0.72455351	      5.50950891	     -0.66334379	      0.86940200	      0.32386463	     38.34405994	      1.40333091	     -0.93574828	    -26.80614793	     -0.11354357	     -7.40319331	      4.54817964	     -4.73739147	      1.09969172	      0.92088189	    -25.02420513	     16.52276742	      2.03521750	     17.86162828	      1.64724096	     -2.14883479	     -7.69957323
      0.53383333	     -8.56117784	      0.60637109	      5.45107799	     -0.65734807	      0.86918680	      0.32446358	     38.30397774	      1.66628116	     -0.85820987	    -27.54517423	      0.16475935	     -7.55526162	      4.55398045	     -4.28506131	      0.89852015	      0.76452167	    -26.68542632	     15.86411073	      1.96399012	     17.94179653	      1.69813213	     -1.92007239	     -7.50386979
      0.53800000	     -8.54879155	      0.48222743	      5.38958312	     -0.65139574	      0.86901250	      0.32508165	     38.25745828	      1.93076696	     -0.80399901	    -28.27511977	      0.45679490	     -7.66985830	      4.55839460	     -3.77864867	      0.67627530	      0.54500757	    -28.44268002	     15.17075089	      1.93371623	     18.07051155	      1.74311336	     -1.70506682	     -7.27557113
